<?xml version="1.0" encoding="UTF-8"?>
<svg xmlns="http://www.w3.org/2000/svg" xmlns:xlink="http://www.w3.org/1999/xlink" viewBox="0 0 24 24" width="24px" height="24px">
<g id="surface8493699">
<path style=" stroke:none;fill-rule:nonzero;fill:rgb(100%,100%,100%);fill-opacity:1;" d="M 12 2.398438 C 6.699219 2.398438 2.398438 6.699219 2.398438 12 C 2.398438 13.800781 2.90625 15.480469 3.769531 16.921875 L 2.484375 21.601562 L 7.265625 20.34375 C 8.664062 21.140625 10.277344 21.601562 12 21.601562 C 17.300781 21.601562 21.601562 17.300781 21.601562 12 C 21.601562 6.699219 17.300781 2.398438 12 2.398438 Z M 8.714844 7.523438 C 8.871094 7.523438 9.03125 7.519531 9.167969 7.527344 C 9.339844 7.53125 9.527344 7.542969 9.703125 7.9375 C 9.917969 8.40625 10.378906 9.582031 10.4375 9.703125 C 10.496094 9.824219 10.539062 9.960938 10.457031 10.117188 C 10.378906 10.277344 10.335938 10.375 10.222656 10.515625 C 10.101562 10.65625 9.972656 10.824219 9.863281 10.929688 C 9.746094 11.050781 9.621094 11.179688 9.757812 11.417969 C 9.898438 11.65625 10.375 12.433594 11.082031 13.0625 C 11.988281 13.875 12.753906 14.121094 12.992188 14.242188 C 13.230469 14.363281 13.371094 14.34375 13.507812 14.183594 C 13.648438 14.027344 14.101562 13.492188 14.261719 13.253906 C 14.417969 13.015625 14.578125 13.054688 14.792969 13.132812 C 15.011719 13.210938 16.183594 13.789062 16.421875 13.90625 C 16.660156 14.027344 16.816406 14.085938 16.875 14.183594 C 16.9375 14.28125 16.9375 14.757812 16.738281 15.3125 C 16.542969 15.867188 15.570312 16.40625 15.136719 16.441406 C 14.695312 16.484375 14.285156 16.640625 12.28125 15.851562 C 9.863281 14.898438 8.335938 12.417969 8.21875 12.257812 C 8.097656 12.101562 7.25 10.972656 7.25 9.804688 C 7.25 8.632812 7.863281 8.058594 8.078125 7.820312 C 8.296875 7.582031 8.554688 7.523438 8.714844 7.523438 Z M 8.714844 7.523438 "/>
</g>
</svg>
