<?xml version="1.0" encoding="UTF-8"?>
<svg xmlns="http://www.w3.org/2000/svg" xmlns:xlink="http://www.w3.org/1999/xlink" viewBox="0 0 24 24" width="24px" height="24px">
<g id="surface8495197">
<path style=" stroke:none;fill-rule:nonzero;fill:rgb(100%,100%,100%);fill-opacity:1;" d="M 12 3 C 8.941406 3 6.234375 3.316406 4.589844 3.5625 C 3.242188 3.761719 2.167969 4.816406 1.921875 6.167969 C 1.710938 7.355469 1.5 9.082031 1.5 11.25 C 1.5 13.417969 1.710938 15.144531 1.921875 16.332031 C 2.167969 17.683594 3.242188 18.730469 4.589844 18.9375 C 6.242188 19.183594 8.960938 19.5 12 19.5 C 15.042969 19.5 17.753906 19.183594 19.40625 18.9375 L 19.414062 18.9375 C 20.761719 18.738281 21.832031 17.683594 22.078125 16.332031 C 22.289062 15.140625 22.5 13.414062 22.5 11.25 C 22.5 9.082031 22.289062 7.355469 22.074219 6.167969 C 21.832031 4.816406 20.761719 3.761719 19.414062 3.5625 C 17.765625 3.316406 15.058594 3 12 3 Z M 12 4.5 C 14.953125 4.5 17.597656 4.804688 19.191406 5.042969 C 19.894531 5.148438 20.460938 5.703125 20.597656 6.433594 C 20.796875 7.542969 21 9.183594 21 11.25 C 21 13.316406 20.796875 14.957031 20.601562 16.058594 C 20.46875 16.796875 19.898438 17.347656 19.191406 17.457031 C 17.585938 17.691406 14.9375 18 12 18 C 9.066406 18 6.410156 17.691406 4.8125 17.457031 C 4.109375 17.351562 3.535156 16.800781 3.398438 16.058594 C 3.207031 14.953125 3 13.316406 3 11.25 C 3 9.175781 3.207031 7.542969 3.398438 6.433594 C 3.535156 5.703125 4.101562 5.152344 4.804688 5.050781 L 4.8125 5.050781 C 6.40625 4.808594 9.046875 4.5 12 4.5 Z M 9 7.5 L 9 15 L 16.5 11.25 Z M 9 7.5 "/>
</g>
</svg>
